<svg xmlns="http://www.w3.org/2000/svg" viewBox="0 0 24 24" fill="none">
  <g clip-path="url(#clip0_663_105477)">
    <path d="M5.14016 15.1195C5.14016 16.499 4.0252 17.614 2.64567 17.614C1.26614 17.614 0.151184 16.499 0.151184 15.1195C0.151184 13.74 1.26614 12.625 2.64567 12.625H5.14016V15.1195ZM6.3874 15.1195C6.3874 13.74 7.50237 12.625 8.88189 12.625C10.2614 12.625 11.3764 13.74 11.3764 15.1195V21.3557C11.3764 22.7352 10.2614 23.8502 8.88189 23.8502C7.50237 23.8502 6.3874 22.7352 6.3874 21.3557V15.1195Z" fill="#E01E5A"/>
    <path d="M8.88187 5.10226C7.50234 5.10226 6.38738 3.9873 6.38738 2.60777C6.38738 1.22824 7.50234 0.113281 8.88187 0.113281C10.2614 0.113281 11.3764 1.22824 11.3764 2.60777V5.10226H8.88187ZM8.88187 6.3684C10.2614 6.3684 11.3764 7.48336 11.3764 8.86289C11.3764 10.2424 10.2614 11.3574 8.88187 11.3574H2.62675C1.24722 11.3574 0.132263 10.2424 0.132263 8.86289C0.132263 7.48336 1.24722 6.3684 2.62675 6.3684H8.88187Z" fill="#36C5F0"/>
    <path d="M18.8787 8.86289C18.8787 7.48336 19.9937 6.3684 21.3732 6.3684C22.7528 6.3684 23.8677 7.48336 23.8677 8.86289C23.8677 10.2424 22.7528 11.3574 21.3732 11.3574H18.8787V8.86289ZM17.6315 8.86289C17.6315 10.2424 16.5165 11.3574 15.137 11.3574C13.7575 11.3574 12.6425 10.2424 12.6425 8.86289V2.60777C12.6425 1.22824 13.7575 0.113281 15.137 0.113281C16.5165 0.113281 17.6315 1.22824 17.6315 2.60777V8.86289Z" fill="#2EB67D"/>
    <path d="M15.137 18.8612C16.5165 18.8612 17.6315 19.9762 17.6315 21.3557C17.6315 22.7352 16.5165 23.8502 15.137 23.8502C13.7575 23.8502 12.6425 22.7352 12.6425 21.3557V18.8612H15.137ZM15.137 17.614C13.7575 17.614 12.6425 16.499 12.6425 15.1195C12.6425 13.74 13.7575 12.625 15.137 12.625H21.3921C22.7717 12.625 23.8866 13.74 23.8866 15.1195C23.8866 16.499 22.7717 17.614 21.3921 17.614H15.137Z" fill="#ECB22E"/>
  </g>
  <defs>
    <clipPath id="clip0_663_105477">
      <rect width="24" height="24" fill="white"/>
    </clipPath>
  </defs>
</svg>