<svg width="149" height="48" viewBox="0 0 149 48" fill="none" xmlns="http://www.w3.org/2000/svg">
<rect x="25" y="12" width="10" height="24" fill="#FBFAF9"/>
<rect x="12" y="12" width="10" height="6" fill="#FBFAF9"/>
<rect x="12" y="21" width="10" height="6" fill="#FBFAF9"/>
<rect x="12" y="30" width="10" height="6" fill="#FBFAF9"/>
<path d="M44.332 28V21.4H45.388V22.66H45.64L45.292 23.44C45.292 22.728 45.444 22.192 45.748 21.832C46.06 21.464 46.52 21.28 47.128 21.28C47.824 21.28 48.376 21.5 48.784 21.94C49.2 22.372 49.408 22.96 49.408 23.704V24.1H48.328V23.8C48.328 23.28 48.2 22.884 47.944 22.612C47.696 22.332 47.34 22.192 46.876 22.192C46.42 22.192 46.06 22.332 45.796 22.612C45.54 22.892 45.412 23.288 45.412 23.8V28H44.332ZM51.2153 28V27.016H53.5553V22.384H51.5153V21.4H54.6353V27.016H56.8553V28H51.2153ZM53.9753 20.212C53.7113 20.212 53.5033 20.144 53.3513 20.008C53.1993 19.872 53.1233 19.688 53.1233 19.456C53.1233 19.216 53.1993 19.028 53.3513 18.892C53.5033 18.748 53.7113 18.676 53.9753 18.676C54.2393 18.676 54.4473 18.748 54.5993 18.892C54.7513 19.028 54.8273 19.216 54.8273 19.456C54.8273 19.688 54.7513 19.872 54.5993 20.008C54.4473 20.144 54.2393 20.212 53.9753 20.212ZM59.3226 30.16V29.176H61.4226C61.7586 29.176 62.0026 29.1 62.1546 28.948C62.3146 28.796 62.3946 28.56 62.3946 28.24V27.4L62.4186 26.2H62.2026L62.4066 26.02C62.4066 26.5 62.2466 26.88 61.9266 27.16C61.6066 27.44 61.1786 27.58 60.6426 27.58C59.9626 27.58 59.4266 27.36 59.0346 26.92C58.6426 26.472 58.4466 25.872 58.4466 25.12V23.728C58.4466 22.976 58.6426 22.38 59.0346 21.94C59.4266 21.5 59.9626 21.28 60.6426 21.28C61.1786 21.28 61.6066 21.42 61.9266 21.7C62.2466 21.98 62.4066 22.36 62.4066 22.84L62.2026 22.66H62.4066V21.4H63.4746V28.24C63.4746 28.832 63.2906 29.3 62.9226 29.644C62.5626 29.988 62.0586 30.16 61.4106 30.16H59.3226ZM60.9666 26.644C61.4146 26.644 61.7666 26.504 62.0226 26.224C62.2786 25.944 62.4066 25.556 62.4066 25.06V23.8C62.4066 23.304 62.2786 22.916 62.0226 22.636C61.7666 22.356 61.4146 22.216 60.9666 22.216C60.5106 22.216 60.1546 22.352 59.8986 22.624C59.6506 22.896 59.5266 23.288 59.5266 23.8V25.06C59.5266 25.572 59.6506 25.964 59.8986 26.236C60.1546 26.508 60.5106 26.644 60.9666 26.644ZM65.6899 28V19.24H66.7699V21.4V22.66H66.9979L66.7699 22.912C66.7699 22.392 66.9259 21.992 67.2379 21.712C67.5499 21.424 67.9819 21.28 68.5339 21.28C69.1979 21.28 69.7259 21.484 70.1179 21.892C70.5099 22.3 70.7059 22.856 70.7059 23.56V28H69.6259V23.68C69.6259 23.208 69.4979 22.844 69.2419 22.588C68.9939 22.324 68.6539 22.192 68.2219 22.192C67.7739 22.192 67.4179 22.332 67.1539 22.612C66.8979 22.892 66.7699 23.288 66.7699 23.8V28H65.6899ZM76.1013 28C75.5333 28 75.0893 27.848 74.7693 27.544C74.4573 27.24 74.3013 26.812 74.3013 26.26V22.384H72.4413V21.4H74.3013V19.54H75.3813V21.4H78.0213V22.384H75.3813V26.26C75.3813 26.764 75.6213 27.016 76.1013 27.016H77.9013V28H76.1013ZM82.9606 28.12C82.4166 28.12 81.9806 27.976 81.6526 27.688C81.3246 27.392 81.1606 26.992 81.1606 26.488L81.3766 26.74H81.1606V28H80.0806V19.24H81.1606V21.16L81.1366 22.66H81.3766L81.1606 22.912C81.1606 22.416 81.3246 22.02 81.6526 21.724C81.9886 21.428 82.4246 21.28 82.9606 21.28C83.6246 21.28 84.1566 21.5 84.5566 21.94C84.9566 22.38 85.1566 22.98 85.1566 23.74V25.672C85.1566 26.424 84.9566 27.02 84.5566 27.46C84.1566 27.9 83.6246 28.12 82.9606 28.12ZM82.6006 27.184C83.0566 27.184 83.4166 27.048 83.6806 26.776C83.9446 26.504 84.0766 26.112 84.0766 25.6V23.8C84.0766 23.288 83.9446 22.896 83.6806 22.624C83.4166 22.352 83.0566 22.216 82.6006 22.216C82.1606 22.216 81.8086 22.356 81.5446 22.636C81.2886 22.916 81.1606 23.304 81.1606 23.8V25.6C81.1606 26.096 81.2886 26.484 81.5446 26.764C81.8086 27.044 82.1606 27.184 82.6006 27.184ZM87.5039 28V21.4H88.5599V22.66H88.8119L88.4639 23.44C88.4639 22.728 88.6159 22.192 88.9199 21.832C89.2319 21.464 89.6919 21.28 90.2999 21.28C90.9959 21.28 91.5479 21.5 91.9559 21.94C92.3719 22.372 92.5799 22.96 92.5799 23.704V24.1H91.4999V23.8C91.4999 23.28 91.3719 22.884 91.1159 22.612C90.8679 22.332 90.5119 22.192 90.0479 22.192C89.5919 22.192 89.2319 22.332 88.9679 22.612C88.7119 22.892 88.5839 23.288 88.5839 23.8V28H87.5039ZM96.3912 28.12C95.6952 28.12 95.1472 27.944 94.7472 27.592C94.3472 27.232 94.1472 26.748 94.1472 26.14C94.1472 25.524 94.3472 25.04 94.7472 24.688C95.1472 24.336 95.6872 24.16 96.3672 24.16H98.4072V23.5C98.4072 23.092 98.2832 22.78 98.0352 22.564C97.7952 22.34 97.4512 22.228 97.0032 22.228C96.6112 22.228 96.2832 22.312 96.0192 22.48C95.7552 22.64 95.6032 22.86 95.5632 23.14H94.4832C94.5552 22.572 94.8232 22.12 95.2872 21.784C95.7512 21.448 96.3312 21.28 97.0272 21.28C97.7872 21.28 98.3872 21.476 98.8272 21.868C99.2672 22.26 99.4872 22.792 99.4872 23.464V28H98.4312V26.74H98.2512L98.4312 26.56C98.4312 27.04 98.2432 27.42 97.8672 27.7C97.4992 27.98 97.0072 28.12 96.3912 28.12ZM96.6552 27.268C97.1672 27.268 97.5872 27.14 97.9152 26.884C98.2432 26.628 98.4072 26.3 98.4072 25.9V24.964H96.3912C96.0312 24.964 95.7472 25.064 95.5392 25.264C95.3312 25.464 95.2272 25.736 95.2272 26.08C95.2272 26.448 95.3512 26.74 95.5992 26.956C95.8552 27.164 96.2072 27.268 96.6552 27.268ZM101.583 28V27.016H103.923V22.384H101.883V21.4H105.003V27.016H107.223V28H101.583ZM104.343 20.212C104.079 20.212 103.871 20.144 103.719 20.008C103.567 19.872 103.491 19.688 103.491 19.456C103.491 19.216 103.567 19.028 103.719 18.892C103.871 18.748 104.079 18.676 104.343 18.676C104.607 18.676 104.815 18.748 104.967 18.892C105.119 19.028 105.195 19.216 105.195 19.456C105.195 19.688 105.119 19.872 104.967 20.008C104.815 20.144 104.607 20.212 104.343 20.212ZM108.862 28V21.4H109.942V22.66H110.17L109.942 22.912C109.942 22.392 110.098 21.992 110.41 21.712C110.722 21.424 111.154 21.28 111.706 21.28C112.37 21.28 112.898 21.484 113.29 21.892C113.682 22.3 113.878 22.856 113.878 23.56V28H112.798V23.68C112.798 23.208 112.67 22.848 112.414 22.6C112.166 22.344 111.826 22.216 111.394 22.216C110.946 22.216 110.59 22.352 110.326 22.624C110.07 22.896 109.942 23.288 109.942 23.8V28H108.862Z" fill="#FBFAF9"/>
<path d="M118.6 28.12C118.296 28.12 118.052 28.032 117.868 27.856C117.692 27.68 117.604 27.444 117.604 27.148C117.604 26.836 117.692 26.588 117.868 26.404C118.052 26.22 118.296 26.128 118.6 26.128C118.904 26.128 119.144 26.22 119.32 26.404C119.504 26.588 119.596 26.836 119.596 27.148C119.596 27.444 119.504 27.68 119.32 27.856C119.144 28.032 118.904 28.12 118.6 28.12ZM125.219 28.12C124.523 28.12 123.975 27.944 123.575 27.592C123.175 27.232 122.975 26.748 122.975 26.14C122.975 25.524 123.175 25.04 123.575 24.688C123.975 24.336 124.515 24.16 125.195 24.16H127.235V23.5C127.235 23.092 127.111 22.78 126.863 22.564C126.623 22.34 126.279 22.228 125.831 22.228C125.439 22.228 125.111 22.312 124.847 22.48C124.583 22.64 124.431 22.86 124.391 23.14H123.311C123.383 22.572 123.651 22.12 124.115 21.784C124.579 21.448 125.159 21.28 125.855 21.28C126.615 21.28 127.215 21.476 127.655 21.868C128.095 22.26 128.315 22.792 128.315 23.464V28H127.259V26.74H127.079L127.259 26.56C127.259 27.04 127.071 27.42 126.695 27.7C126.327 27.98 125.835 28.12 125.219 28.12ZM125.483 27.268C125.995 27.268 126.415 27.14 126.743 26.884C127.071 26.628 127.235 26.3 127.235 25.9V24.964H125.219C124.859 24.964 124.575 25.064 124.367 25.264C124.159 25.464 124.055 25.736 124.055 26.08C124.055 26.448 124.179 26.74 124.427 26.956C124.683 27.164 125.035 27.268 125.483 27.268ZM130.411 28V27.016H132.751V22.384H130.711V21.4H133.831V27.016H136.051V28H130.411ZM133.171 20.212C132.907 20.212 132.699 20.144 132.547 20.008C132.395 19.872 132.319 19.688 132.319 19.456C132.319 19.216 132.395 19.028 132.547 18.892C132.699 18.748 132.907 18.676 133.171 18.676C133.435 18.676 133.643 18.748 133.795 18.892C133.947 19.028 134.023 19.216 134.023 19.456C134.023 19.688 133.947 19.872 133.795 20.008C133.643 20.144 133.435 20.212 133.171 20.212Z" fill="#FBFAF9"/>
</svg>
